<svg height="480pt" viewBox="0 -64 480.02724 480" width="480pt" xmlns="http://www.w3.org/2000/svg" stroke="#FFFFFF" fill="none" stroke-width="3">
<path d="m352 96.011719v-32c8.835938 0 16-7.160157 16-16v-32c0-8.835938-7.164062-16.0000002-16-16.0000002h-128c-8.835938 0-16 7.1640622-16 16.0000002v32c-8.835938 0-16 7.164062-16 16v32c-8.835938 0-16 7.164062-16 16v32c0 8.839843 7.164062 16 16 16v32c-8.835938 0-16 7.164062-16 16v32c0 8.839843 7.164062 16 16 16v32c.023438.710937.09375 1.414062.214844 2.113281-5.050782 2.800781-8.195313 8.113281-8.214844 13.886719v32c0 8.839843 7.164062 16 16 16h128c2.125-.046875 4.214844-.519531 6.152344-1.390625 47.394531 6.710937 94.574218-13.59375 122.273437-52.632813 27.703125-39.039062 31.296875-90.277343 9.308594-132.796875-21.984375-42.519531-65.867187-69.210937-113.734375-69.179687zm-128-80h8v8h16v-8h16v8h16v-8h16v8h16v-8h16v8h16v-8h8v32h-128zm-16 48h8v8h16v-8h16v8h16v-8h16v8h16v-8h16v8h16v-8h8v32h-128zm-16 48h8v8h16v-8h16v8h16v-8h42.167969c-14.59375 8.113281-27.476563 18.980469-37.929688 32h-60.238281zm16 48h33.320312c-5.804687 10.023437-10.214843 20.789062-13.105468 32h-20.214844zm-16 48h8v8h16v-8h9.113281c-1.484375 10.617187-1.484375 21.386719 0 32h-33.113281zm36.214844 48c2.890625 11.214843 7.300781 21.980469 13.105468 32h-33.320312v-32zm-28.214844 80v-32h8v8h16v-8h28.238281c10.453125 13.023437 23.335938 23.890625 37.929688 32zm152 0c-61.855469 0-112-50.140625-112-112 0-61.855469 50.144531-112 112-112s112 50.144531 112 112c-.066406 61.832031-50.171875 111.9375-112 112zm0 0"/><path d="m368 185.484375v-9.472656h-16v8h-8v-8h-16v8c-4.417969 0-8 3.582031-8 8v64c0 4.421875 3.582031 8 8 8v8h16v-8h8v8h16v-9.46875c7.566406-2.621094 13.308594-8.871094 15.273438-16.632813 1.96875-7.761718-.105469-15.992187-5.511719-21.898437 5.40625-5.902344 7.480469-14.132813 5.511719-21.894531-1.964844-7.761719-7.707032-14.015626-15.273438-16.632813zm-32 14.527344h24c4.417969 0 8 3.582031 8 8 0 4.421875-3.582031 8-8 8h-24zm24 48h-24v-16h24c4.417969 0 8 3.582031 8 8 0 4.421875-3.582031 8-8 8zm0 0"/><path d="m352 120.011719c-57.4375 0-104 46.5625-104 104 0 57.441406 46.5625 104 104 104s104-46.558594 104-104c-.066406-57.410157-46.589844-103.933594-104-104zm0 192c-48.601562 0-88-39.398438-88-88 0-48.597657 39.398438-88 88-88s88 39.402343 88 88c-.058594 48.578125-39.421875 87.945312-88 88zm0 0"/><path d="m160 240.011719v-32c-.023438-.707031-.09375-1.410157-.214844-2.109375 5.050782-2.800782 8.195313-8.113282 8.214844-13.890625v-32c-.019531-5.773438-3.164062-11.085938-8.214844-13.886719.121094-.699219.191406-1.402344.214844-2.113281v-32c0-8.835938-7.164062-16-16-16h-128c-8.835938 0-16 7.164062-16 16v32c.0195312 5.777343 3.164062 11.089843 8.214844 13.890625-.121094.699218-.191406 1.402344-.214844 2.109375v32c.023438.710937.09375 1.414062.214844 2.113281-5.050782 2.800781-8.1953128 8.113281-8.214844 13.886719v32c0 8.839843 7.164062 16 16 16v32c-8.835938 0-16 7.164062-16 16v32c0 8.839843 7.164062 16 16 16h128c8.835938 0 16-7.160157 16-16v-32c8.835938 0 16-7.160157 16-16v-32c0-8.835938-7.164062-16-16-16zm-144 0v-32h8v8h16v-8h16v8h16v-8h16v8h16v-8h16v8h16v-8h8v32zm8-80h8v8h16v-8h16v8h16v-8h16v8h16v-8h16v8h16v-8h8v32h-128zm-8-48h8v8h16v-8h16v8h16v-8h16v8h16v-8h16v8h16v-8h8v32h-128zm128 224h-128v-32h8v8h16v-8h16v8h16v-8h16v8h16v-8h16v8h16v-8h8zm16-48h-128v-32h8v8h16v-8h16v8h16v-8h16v8h16v-8h16v8h16v-8h8zm0 0"/><path d="m400 216.011719h16v16h-16zm0 0"/><path d="m288 216.011719h16v16h-16zm0 0"/></svg>